[Header]
FileType HTR
DataType HTRS
FileVersion 1
NumSegments 22
NumFrames 4
DataFrameRate 24
EulerRotationOrder ZYX
CalibrationUnits mm
RotationUnits Degrees
GlobalAxisofGravity Y
BoneLengthAxis Y
ScaleFactor 1.0
[SegmentNames&Hierarchy]
reference	GLOBAL
Hips	reference
Spine	Hips
Spine1	Spine
Neck	Spine1
Head	Neck
LeftShoulder	Spine1
LeftArm	LeftShoulder
LeftForeArm	LeftArm
LeftHand	LeftForeArm
RightShoulder	Spine1
RightArm	RightShoulder
RightForeArm	RightArm
RightHand	RightForeArm
LeftUpLeg	Hips
LeftLeg	LeftUpLeg
LeftFoot	LeftLeg
LeftToeBase	LeftFoot
RightUpLeg	Hips
RightLeg	RightUpLeg
RightFoot	RightLeg
RightToeBase	RightFoot
[BasePosition]
reference	0	0	0	0	0	0	1
Hips	0	0	0	0	0	0	1
Spine	0	0	0	-0	-90	0	1
Spine1	0	0	0	0	0	0	1
Neck	0	0	0	82.64767223	-82.64767223	-90	1
Head	0	0	0	-0	-90	0	1
LeftShoulder	0	0	0	0	0	0	1
LeftArm	0	0	0	0	0	0	1
LeftForeArm	0	0	0	0	0	0	1
LeftHand	0	0	0	0	0	0	1
RightShoulder	0	0	0	0	-0	180	1
RightArm	0	0	0	0	-0	180	1
RightForeArm	0	0	0	0	-0	180	1
RightHand	0	0	0	0	-0	180	1
LeftUpLeg	0	0	0	-0	90	0	1
LeftLeg	0	0	0	-0	90	0	1
LeftFoot	0	0	0	-23.42853957	23.42853957	-90	1
LeftToeBase	0	0	0	0	-0	-90	1
RightUpLeg	0	0	0	-0	90	0	1
RightLeg	0	0	0	-0	90	0	1
RightFoot	0	0	0	-23.42853957	23.42853957	-90	1
RightToeBase	0	0	0	0	-0	-90	1
[reference]
1	0	0	0	0	-0	0	1.0
2	0	0	0	0	-0	0	1.0
3	0	0	0	0	-0	0	1.0
4	0	0	0	0	-0	0	1.0
[Hips]
1	5.201609612	0.03909999877	7.90871048	1.027238846	-0.8716309071	-71.1075592	1.0
2	5.201609612	0.03909999877	7.90871048	0.8464024067	-1.137771964	-71.66688538	1.0
3	5.201609612	0.03909999877	7.90871048	1.477277756	-0.7689253092	-72.6606369	1.0
4	5.201609612	0.03909999877	7.90871048	2.156108618	-0.09174580872	-74.12003326	1.0
[Spine]
1	0	0	0.7457100153	-32.83680725	93.30813599	-25.741745	1.0
2	0	0	0.7457100153	-32.83194733	93.61029053	-25.69506454	1.0
3	0	0	0.7457100153	-36.06887054	93.17124939	-28.45747566	1.0
4	0	0	0.7457100153	-50.69356537	92.59611511	-42.4115181	1.0
[Spine1]
1	0	0	2.140589952	10.43246841	-1.748271227	0.3811403215	1.0
2	0	0	2.140589952	10.39465332	-1.676333308	0.4385383427	1.0
3	0	0	2.140589952	9.261640549	-1.326163173	0.450488627	1.0
4	0	0	2.140589952	8.30424881	-0.9164209962	0.5625247955	1.0
[Neck]
1	0	0	2.32246995	77.2702179	79.27495575	90.89959717	1.0
2	0	0	2.32246995	77.44631958	79.19387817	90.71796417	1.0
3	0	0	2.32246995	76.78569794	78.76784515	89.04283142	1.0
4	0	0	2.32246995	76.14889526	78.30450439	87.49638367	1.0
[Head]
1	0	-0.1818799973	1.409579992	-48.21232605	95.65240479	-42.76152039	1.0
2	0	-0.1818799973	1.409579992	-49.90065384	95.58283997	-44.28809357	1.0
3	0	-0.1818799973	1.409579992	-54.90296173	95.67645264	-49.21740341	1.0
4	0	-0.1818799973	1.409579992	-59.68805313	95.83937073	-54.08010101	1.0
[LeftShoulder]
1	0.3668199778	0.02662999928	1.946700096	-16.03458786	1.103470564	-13.88342285	1.0
2	0.3668199778	0.02662999928	1.946700096	-15.96218872	1.557691216	-13.94509029	1.0
3	0.3668199778	0.02662999928	1.946700096	-16.7248745	1.867382884	-13.36205673	1.0
4	0.3668199778	0.02662999928	1.946700096	-16.20736313	2.339057446	-12.80600643	1.0
[LeftArm]
1	1.140689969	0	0	69.50544739	63.59005737	39.36759186	1.0
2	1.140689969	0	0	69.04165649	64.26664734	38.06834412	1.0
3	1.140689969	0	0	73.08273315	66.60066986	39.16648865	1.0
4	1.140689969	0	0	75.98738098	69.73364258	39.03676224	1.0
[LeftForeArm]
1	2.749800205	0	0	-10.50556374	2.830060959	-5.6303792	1.0
2	2.749800205	0	0	-10.40653515	2.87975955	-5.818334579	1.0
3	2.749800205	0	0	-11.44951916	1.964595318	-7.222784996	1.0
4	2.749800205	0	0	-13.06490993	0.4117262363	-9.331429482	1.0
[LeftHand]
1	2.295179844	0	0	-10.31924534	-3.392283916	-1.593299031	1.0
2	2.295179844	0	0	-10.21166134	-2.695013523	-2.052566528	1.0
3	2.295179844	0	0	-11.29081345	-1.70119381	-2.553531408	1.0
4	2.295179844	0	0	-12.97748756	-2.001529932	-2.954124928	1.0
[RightShoulder]
1	-0.3601199985	0.02662999928	1.946700096	-8.296377182	5.082634449	-177.0826111	1.0
2	-0.3601199985	0.02662999928	1.946700096	-8.015753746	4.896388054	-177.1887817	1.0
3	-0.3601199985	0.02662999928	1.946700096	-7.512806416	4.957742691	-177.6164246	1.0
4	-0.3601199985	0.02662999928	1.946700096	-6.653425217	5.038928986	-177.98172	1.0
[RightArm]
1	-1.140689969	0	0	6.497637272	-77.11739349	-120.3833542	1.0
2	-1.140689969	0	0	9.217186928	-78.2930069	-124.4531403	1.0
3	-1.140689969	0	0	25.60303879	-81.65582275	-144.5305634	1.0
4	-1.140689969	0	0	48.97544098	-83.4306488	-173.361496	1.0
[RightForeArm]
1	-2.749800205	0	0	3.755517483	2.057381392	-163.6871948	1.0
2	-2.749800205	0	0	2.860218287	2.242370367	-164.3700867	1.0
3	-2.749800205	0	0	0.8304315209	2.672380924	-165.813385	1.0
4	-2.749800205	0	0	-0.7430887222	2.319168329	-166.8724823	1.0
[RightHand]
1	-2.295179844	0	0	4.294990063	10.33476734	-170.793869	1.0
2	-2.295179844	0	0	3.341201067	9.932260513	-170.9344482	1.0
3	-2.295179844	0	0	1.104530334	7.709546089	-171.0670929	1.0
4	-2.295179844	0	0	-0.5295615196	6.648461342	-171.7217712	1.0
[LeftUpLeg]
1	0.9094099998	0	0	-6.48673296	-86.4348526	-6.896820068	1.0
2	0.9094099998	0	0	-1.282528043	-86.41565704	-12.82392693	1.0
3	0.9094099998	0	0	-8.721690178	-86.95851898	-8.561979294	1.0
4	0.9094099998	0	0	-34.13270187	-87.3182373	14.85439301	1.0
[LeftLeg]
1	0	0	-4.498080254	80.40607452	-58.19161606	-40.31628799	1.0
2	0	0	-4.498080254	79.58203888	-57.68721008	-38.66711044	1.0
3	0	0	-4.498080254	80.95148468	-56.86785126	-37.51050568	1.0
4	0	0	-4.498080254	82.52850342	-60.70374298	-38.91667557	1.0
[LeftFoot]
1	0	0	-3.729400158	-70.26864624	-2.093287945	124.2608109	1.0
2	0	0	-3.729400158	-70.15286255	-1.107029796	124.059845	1.0
3	0	0	-3.729400158	-69.03949738	-0.8783321381	124.7945862	1.0
4	0	0	-3.729400158	-67.66751099	-2.050147533	120.8563004	1.0
[LeftToeBase]
1	0	-1.364109993	-0.5911099911	-1.999999995e-006	0	-1.999999995e-006	1.0
2	0	-1.364109993	-0.5911099911	-1.999999995e-006	0	-1.999999995e-006	1.0
3	0	-1.364109993	-0.5911099911	-1.999999995e-006	0	-1.999999995e-006	1.0
4	0	-1.364109993	-0.5911099911	-1.999999995e-006	0	-1.999999995e-006	1.0
[RightUpLeg]
1	-0.9094099998	0	0	82.12143707	-76.63195801	-96.90003967	1.0
2	-0.9094099998	0	0	78.73048401	-77.23475647	-91.56941986	1.0
3	-0.9094099998	0	0	77.11437225	-76.90916443	-85.81987	1.0
4	-0.9094099998	0	0	78.58058167	-74.98709106	-82.8296051	1.0
[RightLeg]
1	0	0	-4.498080254	54.30221939	-65.68739319	13.35005474	1.0
2	0	0	-4.498080254	53.75341415	-67.20781708	13.74375057	1.0
3	0	0	-4.498080254	47.57065582	-71.37877655	16.23959351	1.0
4	0	0	-4.498080254	46.54965973	-71.24137878	9.071367264	1.0
[RightFoot]
1	0	0	-3.729400158	-43.98359299	-28.7139225	111.1492844	1.0
2	0	0	-3.729400158	-43.45206451	-29.32232094	111.1929321	1.0
3	0	0	-3.729400158	-43.23823929	-32.14176178	110.9611664	1.0
4	0	0	-3.729400158	-45.20149994	-32.02571487	116.5413971	1.0
[RightToeBase]
1	0	-1.364109993	-0.5911099911	-9.999999975e-007	0	0	1.0
2	0	-1.364109993	-0.5911099911	-9.999999975e-007	0	0	1.0
3	0	-1.364109993	-0.5911099911	-9.999999975e-007	0	0	1.0
4	0	-1.364109993	-0.5911099911	-9.999999975e-007	0	0	1.0
[EndOfFile]
